<?xml version="1.0" encoding="UTF-8" standalone="no"?><!DOCTYPE svg PUBLIC "-//W3C//DTD SVG 1.1//EN" "http://www.w3.org/Graphics/SVG/1.1/DTD/svg11.dtd"><svg width="100%" height="100%" viewBox="0 0 445 445" version="1.1" xmlns="http://www.w3.org/2000/svg" xmlns:xlink="http://www.w3.org/1999/xlink" xml:space="preserve" xmlns:serif="http://www.serif.com/" style="fill-rule:evenodd;clip-rule:evenodd;stroke-linejoin:round;stroke-miterlimit:1.41421;"><rect id="Icon-Dark" serif:id="Icon Dark" x="0" y="0" width="444.1" height="444.1" style="fill:none;"/><path d="M444.1,222.05c0,-122.553 -99.497,-222.05 -222.05,-222.05c-122.553,0 -222.05,99.497 -222.05,222.05c0,122.553 99.497,222.05 222.05,222.05c122.553,0 222.05,-99.497 222.05,-222.05Z" style="fill:#202b38;"/><clipPath id="_clip1"><path d="M444.1,222.05c0,-122.553 -99.497,-222.05 -222.05,-222.05c-122.553,0 -222.05,99.497 -222.05,222.05c0,122.553 99.497,222.05 222.05,222.05c122.553,0 222.05,-99.497 222.05,-222.05Z"/></clipPath><g clip-path="url(#_clip1)"><path d="M911.401,444.1l-952.033,0l-1013.41,0c-60.994,-158.567 -78.355,-238.341 -52.081,-239.322c55.598,8.234 81.973,34.191 139.482,112.049c29.194,35.605 69.345,20.109 94.465,-2.512c17.584,-16.734 27.073,-50.366 48.844,-49.975c24.561,-0.391 43.233,18.645 54.02,38.532c21.212,25.119 58.675,26.667 78.568,27.352c28.888,-4.186 35.586,-8.373 46.89,-15.909c20.235,-18.142 25.957,-28.887 36.525,-62.596c19.03,-45.672 40.059,-54.509 68.508,-57.09c17.52,-0.234 67.036,-6.54 92.613,58.359c27.593,50.861 80.763,49.186 123.466,44.999c42.704,-7.117 48.121,-21.878 79.52,-56.417c21.98,-33.912 66.612,-40.42 88.173,-36.792c0.085,0.016 0.171,0.031 0.257,0.046c0.23,-0.021 0.464,-0.037 0.702,-0.046c6.914,1.024 13.376,2.322 19.492,3.971c14.176,3.459 31.042,9.841 47.556,24.318c21.383,17.24 42.766,43.593 72.434,83.76c29.194,35.605 69.345,20.109 94.465,-2.512c17.584,-16.734 27.073,-50.366 48.844,-49.975c24.561,-0.391 43.233,18.645 54.02,38.532c21.212,25.119 58.676,26.667 78.568,27.352c28.888,-4.186 35.586,-8.373 46.89,-15.909c20.235,-18.142 25.957,-28.887 36.525,-62.596c19.03,-45.672 40.059,-54.509 68.508,-57.09c17.52,-0.234 67.036,-6.54 92.613,58.359c27.593,50.861 80.763,49.186 123.466,44.999c42.704,-7.117 48.121,-21.878 79.521,-56.417c21.979,-33.912 66.611,-40.42 88.172,-36.792c0.031,0.006 0.062,0.012 0.094,0.017c0.11,-0.007 0.22,-0.012 0.332,-0.017c4.97,0.737 9.708,1.614 14.244,2.667c16.717,3.443 38.298,10.313 58.806,30.72c19.45,17.188 39.536,42.249 66.432,78.662c29.194,35.605 69.346,20.109 94.466,-2.512c17.583,-16.734 27.073,-50.366 48.843,-49.975c24.561,-0.391 43.233,18.645 54.02,38.532c21.212,25.119 58.676,26.667 78.568,27.352c28.888,-4.186 35.587,-8.373 46.89,-15.909c20.236,-18.142 25.957,-28.887 36.525,-62.596c19.03,-45.672 40.059,-54.509 68.508,-57.09c17.52,-0.234 67.037,-6.54 92.613,58.359c27.594,50.861 80.763,49.186 123.467,44.999c42.703,-7.117 48.12,-21.878 79.52,-56.417c21.979,-33.912 66.611,-40.42 88.172,-36.792c21.617,3.861 62.105,8.005 93.951,59.562c7.404,11.987 14.341,26.536 20.465,44.241l0,135.519l-951.5,0Z" style="fill:#41adff;fill-rule:nonzero;"/></g></svg>