<?xml version="1.0" standalone="no"?><!-- Generator: Gravit.io --><svg xmlns="http://www.w3.org/2000/svg" xmlns:xlink="http://www.w3.org/1999/xlink" style="isolation:isolate" viewBox="0 0 1154.9 444.1" width="1154.9" height="444.1"><defs><clipPath id="_clipPath_dacvonWXWqigdbrzc4zOiefYgcz7aYRU"><rect width="1154.9" height="444.1"/></clipPath></defs><g clip-path="url(#_clipPath_dacvonWXWqigdbrzc4zOiefYgcz7aYRU)"><rect width="1154.9" height="444.1" style="fill:#202b38"/><path d=" M 604.202 405.716 C 572.217 405.716 541.822 400.776 513.018 390.812 C 484.214 380.848 458.76 365.943 436.655 346.099 L 491.834 280.034 C 527.588 308.671 566.272 322.905 607.803 322.905 C 621.116 322.905 631.248 320.812 638.198 316.542 C 645.147 312.271 648.664 306.243 648.664 298.455 L 648.664 297.451 C 648.664 293.683 647.827 290.417 646.152 287.487 C 644.477 284.556 641.296 281.793 636.69 279.113 C 632.085 276.434 625.973 273.755 618.269 271.243 C 610.65 268.731 600.686 266.051 588.377 263.372 C 569.286 258.934 551.619 254.078 535.291 248.886 C 518.963 243.611 504.729 236.829 492.671 228.456 C 480.614 220.166 471.068 209.783 464.035 197.391 C 457.085 184.999 453.568 169.592 453.568 151.255 L 453.568 150.25 C 453.568 133.587 456.75 118.264 463.03 104.365 C 469.31 90.465 478.521 78.324 490.578 68.192 C 502.635 57.977 517.205 50.106 534.286 44.496 C 551.284 38.886 570.542 36.123 591.977 36.123 C 622.623 36.123 649.92 40.142 673.951 48.18 C 697.982 56.219 719.669 68.109 739.095 83.934 L 689.525 153.934 C 673.198 142.379 656.367 133.587 639.202 127.642 C 622.037 121.697 605.375 118.683 589.382 118.683 C 577.492 118.683 568.533 120.86 562.588 125.298 C 556.643 129.735 553.628 135.178 553.628 141.625 L 553.628 142.63 C 553.628 146.733 554.549 150.25 556.475 153.348 C 558.317 156.446 561.583 159.209 566.188 161.805 C 570.793 164.401 577.073 166.912 585.111 169.424 C 593.066 171.936 603.281 174.616 615.506 177.295 C 635.937 181.733 654.442 186.924 670.937 192.869 C 687.432 198.814 701.499 206.015 713.054 214.556 C 724.609 223.097 733.485 233.312 739.597 245.369 C 745.71 257.427 748.808 271.829 748.808 288.408 L 748.808 289.412 C 748.808 307.75 745.291 324.077 738.341 338.396 C 731.391 352.714 721.595 364.855 708.951 374.819 C 696.391 384.867 681.236 392.487 663.485 397.762 C 645.733 403.121 625.973 405.716 604.202 405.716 L 604.202 405.716 Z  M 916.355 405.716 C 884.37 405.716 853.975 400.776 825.171 390.812 C 796.367 380.848 770.913 365.943 748.808 346.099 L 803.987 280.034 C 839.741 308.671 878.425 322.905 919.956 322.905 C 933.269 322.905 943.401 320.812 950.351 316.542 C 957.3 312.271 960.817 306.243 960.817 298.455 L 960.817 297.451 C 960.817 293.683 959.98 290.417 958.305 287.487 C 956.63 284.556 953.449 281.793 948.843 279.113 C 944.238 276.434 938.126 273.755 930.422 271.243 C 922.803 268.731 912.839 266.051 900.53 263.372 C 881.439 258.934 863.772 254.078 847.444 248.886 C 831.116 243.611 816.882 236.829 804.824 228.456 C 792.767 220.166 783.221 209.783 776.188 197.391 C 769.238 184.999 765.721 169.592 765.721 151.255 L 765.721 150.25 C 765.721 133.587 768.903 118.264 775.183 104.365 C 781.463 90.465 790.674 78.324 802.731 68.192 C 814.788 57.977 829.358 50.106 846.439 44.496 C 863.437 38.886 882.695 36.123 904.131 36.123 C 934.776 36.123 962.073 40.142 986.104 48.18 C 1010.135 56.219 1031.822 68.109 1051.248 83.934 L 1001.678 153.934 C 985.351 142.379 968.52 133.587 951.355 127.642 C 934.19 121.697 917.528 118.683 901.535 118.683 C 889.645 118.683 880.686 120.86 874.741 125.298 C 868.796 129.735 865.781 135.178 865.781 141.625 L 865.781 142.63 C 865.781 146.733 866.702 150.25 868.628 153.348 C 870.47 156.446 873.736 159.209 878.341 161.805 C 882.946 164.401 889.226 166.912 897.264 169.424 C 905.219 171.936 915.434 174.616 927.659 177.295 C 948.09 181.733 966.595 186.924 983.09 192.869 C 999.585 198.814 1013.652 206.015 1025.207 214.556 C 1036.762 223.097 1045.638 233.312 1051.75 245.369 C 1057.863 257.427 1060.961 271.829 1060.961 288.408 L 1060.961 289.412 C 1060.961 307.75 1057.444 324.077 1050.494 338.396 C 1043.544 352.714 1033.748 364.855 1021.104 374.819 C 1008.544 384.867 993.389 392.487 975.638 397.762 C 957.886 403.121 938.126 405.716 916.355 405.716 L 916.355 405.716 Z  M 278.317 407.977 C 252.779 407.977 228.748 403.372 206.308 394.161 C 183.868 384.951 164.358 372.14 147.863 355.561 C 131.368 339.066 118.222 319.472 108.509 296.865 C 98.796 274.257 93.939 249.64 93.939 223.097 L 93.939 222.092 C 93.939 196.219 98.712 171.936 108.258 149.329 C 117.803 126.721 130.865 106.96 147.612 90.046 C 164.274 73.216 184.119 59.987 207.145 50.441 C 230.171 40.896 255.207 36.123 282.504 36.123 C 300.925 36.123 317.588 37.881 332.576 41.482 C 347.564 45.082 361.296 50.19 373.688 56.805 C 386.08 63.42 397.384 71.374 407.432 80.585 C 417.48 89.795 426.439 99.843 434.226 110.728 L 359.537 168.503 C 349.322 155.525 338.102 145.31 325.793 137.857 C 313.569 130.405 298.748 126.637 281.332 126.637 C 268.772 126.637 257.217 129.149 246.834 134.006 C 236.451 138.946 227.492 145.645 220.04 154.185 C 212.588 162.726 206.643 172.774 202.456 184.329 C 198.186 195.884 196.092 208.192 196.092 221.087 L 196.092 222.092 C 196.092 235.405 198.186 247.881 202.456 259.604 C 206.726 271.326 212.588 281.458 220.04 289.999 C 227.492 298.539 236.451 305.238 246.834 310.178 C 257.217 315.118 268.688 317.546 281.332 317.546 C 290.542 317.546 298.915 316.542 306.619 314.448 C 314.238 312.439 321.272 309.424 327.552 305.489 C 333.832 301.554 339.777 296.948 345.47 291.673 C 351.08 286.398 356.607 280.537 362.049 274.089 L 436.655 327.176 C 428.114 338.731 418.82 349.448 408.856 359.329 C 398.808 369.209 387.42 377.75 374.609 384.867 C 361.798 391.984 347.564 397.594 331.738 401.697 C 315.913 405.8 298.078 407.977 278.317 407.977 Z " fill-rule="evenodd" fill="#dbdbdb"/><clipPath id="_clipPath_sFNXwQw1Z55tR7tPXKM5PXMM2fHkJxel"><path d=" M 604.202 405.716 C 572.217 405.716 541.822 400.776 513.018 390.812 C 484.214 380.848 458.76 365.943 436.655 346.099 L 491.834 280.034 C 527.588 308.671 566.272 322.905 607.803 322.905 C 621.116 322.905 631.248 320.812 638.198 316.542 C 645.147 312.271 648.664 306.243 648.664 298.455 L 648.664 297.451 C 648.664 293.683 647.827 290.417 646.152 287.487 C 644.477 284.556 641.296 281.793 636.69 279.113 C 632.085 276.434 625.973 273.755 618.269 271.243 C 610.65 268.731 600.686 266.051 588.377 263.372 C 569.286 258.934 551.619 254.078 535.291 248.886 C 518.963 243.611 504.729 236.829 492.671 228.456 C 480.614 220.166 471.068 209.783 464.035 197.391 C 457.085 184.999 453.568 169.592 453.568 151.255 L 453.568 150.25 C 453.568 133.587 456.75 118.264 463.03 104.365 C 469.31 90.465 478.521 78.324 490.578 68.192 C 502.635 57.977 517.205 50.106 534.286 44.496 C 551.284 38.886 570.542 36.123 591.977 36.123 C 622.623 36.123 649.92 40.142 673.951 48.18 C 697.982 56.219 719.669 68.109 739.095 83.934 L 689.525 153.934 C 673.198 142.379 656.367 133.587 639.202 127.642 C 622.037 121.697 605.375 118.683 589.382 118.683 C 577.492 118.683 568.533 120.86 562.588 125.298 C 556.643 129.735 553.628 135.178 553.628 141.625 L 553.628 142.63 C 553.628 146.733 554.549 150.25 556.475 153.348 C 558.317 156.446 561.583 159.209 566.188 161.805 C 570.793 164.401 577.073 166.912 585.111 169.424 C 593.066 171.936 603.281 174.616 615.506 177.295 C 635.937 181.733 654.442 186.924 670.937 192.869 C 687.432 198.814 701.499 206.015 713.054 214.556 C 724.609 223.097 733.485 233.312 739.597 245.369 C 745.71 257.427 748.808 271.829 748.808 288.408 L 748.808 289.412 C 748.808 307.75 745.291 324.077 738.341 338.396 C 731.391 352.714 721.595 364.855 708.951 374.819 C 696.391 384.867 681.236 392.487 663.485 397.762 C 645.733 403.121 625.973 405.716 604.202 405.716 L 604.202 405.716 Z  M 916.355 405.716 C 884.37 405.716 853.975 400.776 825.171 390.812 C 796.367 380.848 770.913 365.943 748.808 346.099 L 803.987 280.034 C 839.741 308.671 878.425 322.905 919.956 322.905 C 933.269 322.905 943.401 320.812 950.351 316.542 C 957.3 312.271 960.817 306.243 960.817 298.455 L 960.817 297.451 C 960.817 293.683 959.98 290.417 958.305 287.487 C 956.63 284.556 953.449 281.793 948.843 279.113 C 944.238 276.434 938.126 273.755 930.422 271.243 C 922.803 268.731 912.839 266.051 900.53 263.372 C 881.439 258.934 863.772 254.078 847.444 248.886 C 831.116 243.611 816.882 236.829 804.824 228.456 C 792.767 220.166 783.221 209.783 776.188 197.391 C 769.238 184.999 765.721 169.592 765.721 151.255 L 765.721 150.25 C 765.721 133.587 768.903 118.264 775.183 104.365 C 781.463 90.465 790.674 78.324 802.731 68.192 C 814.788 57.977 829.358 50.106 846.439 44.496 C 863.437 38.886 882.695 36.123 904.131 36.123 C 934.776 36.123 962.073 40.142 986.104 48.18 C 1010.135 56.219 1031.822 68.109 1051.248 83.934 L 1001.678 153.934 C 985.351 142.379 968.52 133.587 951.355 127.642 C 934.19 121.697 917.528 118.683 901.535 118.683 C 889.645 118.683 880.686 120.86 874.741 125.298 C 868.796 129.735 865.781 135.178 865.781 141.625 L 865.781 142.63 C 865.781 146.733 866.702 150.25 868.628 153.348 C 870.47 156.446 873.736 159.209 878.341 161.805 C 882.946 164.401 889.226 166.912 897.264 169.424 C 905.219 171.936 915.434 174.616 927.659 177.295 C 948.09 181.733 966.595 186.924 983.09 192.869 C 999.585 198.814 1013.652 206.015 1025.207 214.556 C 1036.762 223.097 1045.638 233.312 1051.75 245.369 C 1057.863 257.427 1060.961 271.829 1060.961 288.408 L 1060.961 289.412 C 1060.961 307.75 1057.444 324.077 1050.494 338.396 C 1043.544 352.714 1033.748 364.855 1021.104 374.819 C 1008.544 384.867 993.389 392.487 975.638 397.762 C 957.886 403.121 938.126 405.716 916.355 405.716 L 916.355 405.716 Z  M 278.317 407.977 C 252.779 407.977 228.748 403.372 206.308 394.161 C 183.868 384.951 164.358 372.14 147.863 355.561 C 131.368 339.066 118.222 319.472 108.509 296.865 C 98.796 274.257 93.939 249.64 93.939 223.097 L 93.939 222.092 C 93.939 196.219 98.712 171.936 108.258 149.329 C 117.803 126.721 130.865 106.96 147.612 90.046 C 164.274 73.216 184.119 59.987 207.145 50.441 C 230.171 40.896 255.207 36.123 282.504 36.123 C 300.925 36.123 317.588 37.881 332.576 41.482 C 347.564 45.082 361.296 50.19 373.688 56.805 C 386.08 63.42 397.384 71.374 407.432 80.585 C 417.48 89.795 426.439 99.843 434.226 110.728 L 359.537 168.503 C 349.322 155.525 338.102 145.31 325.793 137.857 C 313.569 130.405 298.748 126.637 281.332 126.637 C 268.772 126.637 257.217 129.149 246.834 134.006 C 236.451 138.946 227.492 145.645 220.04 154.185 C 212.588 162.726 206.643 172.774 202.456 184.329 C 198.186 195.884 196.092 208.192 196.092 221.087 L 196.092 222.092 C 196.092 235.405 198.186 247.881 202.456 259.604 C 206.726 271.326 212.588 281.458 220.04 289.999 C 227.492 298.539 236.451 305.238 246.834 310.178 C 257.217 315.118 268.688 317.546 281.332 317.546 C 290.542 317.546 298.915 316.542 306.619 314.448 C 314.238 312.439 321.272 309.424 327.552 305.489 C 333.832 301.554 339.777 296.948 345.47 291.673 C 351.08 286.398 356.607 280.537 362.049 274.089 L 436.655 327.176 C 428.114 338.731 418.82 349.448 408.856 359.329 C 398.808 369.209 387.42 377.75 374.609 384.867 C 361.798 391.984 347.564 397.594 331.738 401.697 C 315.913 405.8 298.078 407.977 278.317 407.977 Z " fill-rule="evenodd" fill="rgb(255,255,255)"/></clipPath><g clip-path="url(#_clipPath_sFNXwQw1Z55tR7tPXKM5PXMM2fHkJxel)"><path d=" M 2045.147 442.607 L 2045.147 442.607 L 1093.114 442.607 L 1093.114 442.607 L 79.705 442.607 Q -11.786 204.757 27.624 203.285 C 83.222 211.519 109.597 237.476 167.106 315.334 C 196.3 350.939 236.451 335.443 261.571 312.822 C 279.155 296.088 288.644 262.456 310.415 262.847 C 334.976 262.456 353.648 281.492 364.435 301.379 C 385.647 326.498 423.11 328.046 443.003 328.731 C 471.891 324.545 478.589 320.358 489.893 312.822 C 510.128 294.68 515.85 283.935 526.418 250.226 C 545.448 204.554 566.477 195.717 594.926 193.136 C 612.446 192.902 661.962 186.596 687.539 251.495 C 715.132 302.356 768.302 300.681 811.005 296.494 C 853.709 289.377 859.126 274.616 890.525 240.077 C 912.505 206.165 957.137 199.657 978.698 203.285 C 978.783 203.301 978.869 203.316 978.955 203.331 Q 979.301 203.299 979.657 203.285 C 986.571 204.309 993.033 205.607 999.149 207.256 C 1013.325 210.715 1030.191 217.097 1046.705 231.574 C 1068.088 248.814 1089.471 275.167 1119.139 315.334 C 1148.333 350.939 1188.484 335.443 1213.604 312.822 C 1231.188 296.088 1240.677 262.456 1262.448 262.847 C 1287.009 262.456 1305.681 281.492 1316.468 301.379 C 1337.68 326.498 1375.144 328.046 1395.036 328.731 C 1423.924 324.545 1430.622 320.358 1441.926 312.822 C 1462.161 294.68 1467.883 283.935 1478.451 250.226 C 1497.481 204.554 1518.51 195.717 1546.959 193.136 C 1564.479 192.902 1613.995 186.596 1639.572 251.495 C 1667.165 302.356 1720.335 300.681 1763.038 296.494 C 1805.742 289.377 1811.159 274.616 1842.559 240.077 C 1864.538 206.165 1909.17 199.657 1930.731 203.285 C 1930.762 203.291 1930.793 203.297 1930.825 203.302 Q 1930.99 203.292 1931.157 203.285 C 1936.127 204.022 1940.865 204.899 1945.401 205.952 C 1962.118 209.395 1983.699 216.265 2004.207 236.672 C 2023.657 253.86 2043.743 278.921 2070.639 315.334 C 2099.833 350.939 2139.985 335.443 2165.105 312.822 C 2182.688 296.088 2192.178 262.456 2213.948 262.847 C 2238.509 262.456 2257.181 281.492 2267.968 301.379 C 2289.18 326.498 2326.644 328.046 2346.536 328.731 C 2375.424 324.545 2382.123 320.358 2393.426 312.822 C 2413.662 294.68 2419.383 283.935 2429.951 250.226 C 2448.981 204.554 2470.01 195.717 2498.459 193.136 C 2515.979 192.902 2565.496 186.596 2591.072 251.495 C 2618.666 302.356 2671.835 300.681 2714.539 296.494 C 2757.242 289.377 2762.659 274.616 2794.059 240.077 C 2816.038 206.165 2860.67 199.657 2882.231 203.285 C 2903.848 207.146 2944.336 211.29 2976.182 262.847 C 2983.586 274.834 2990.523 289.383 2996.647 307.088 L 2996.647 442.607 L 2045.147 442.607 Z " fill="#41adff"/></g></g></svg>